<svg width="263" height="61" viewBox="0 0 263 61" fill="none" xmlns="http://www.w3.org/2000/svg">
<g clip-path="url(#clip0_463_138)">
<path d="M62.2602 52.102C58.6424 56.8875 53.0555 59.7159 47.1432 59.7159C36.5884 59.7159 28 50.8822 28 40.0244C28 29.1667 36.5884 20.333 47.1432 20.333C50.2487 20.333 53.2129 21.0756 55.9503 22.5367C58.2982 23.7914 60.3953 25.5608 62.0601 27.6868C62.2175 27.8906 62.1749 28.1855 61.9668 28.3383L55.6302 32.9977C55.4354 33.1398 55.1633 33.113 55.0059 32.9307C53.0155 30.5929 50.1954 29.2685 47.1405 29.2685C41.3669 29.2685 36.6684 34.0942 36.6684 40.0244C36.6684 45.9547 41.3669 50.7803 47.1405 50.7803C50.2754 50.7803 53.2343 49.3326 55.2166 46.8662C55.366 46.6785 55.6408 46.649 55.8329 46.7911L62.1589 51.4425C62.3696 51.598 62.415 51.8956 62.2576 52.102H62.2602Z" fill="black"/>
<path d="M125.495 52.2376C125.271 52.5888 124.951 53.0714 124.775 53.3073C124.772 53.3127 124.767 53.3153 124.764 53.3207C124.487 53.688 124.193 54.0419 123.884 54.3797C123.876 54.3877 123.868 54.3958 123.86 54.4038C123.734 54.5379 123.523 54.755 123.395 54.8864C123.371 54.9105 123.347 54.9346 123.326 54.9588C123.193 55.0901 123.056 55.2161 122.918 55.3421C122.838 55.4145 122.755 55.4869 122.675 55.5566C122.619 55.6075 122.56 55.6558 122.502 55.7041C120.338 57.5351 117.672 58.7389 114.826 59.133C114.732 59.1464 114.636 59.1571 114.54 59.1678C114.423 59.1812 114.305 59.1946 114.188 59.2054C114.007 59.2214 113.822 59.2375 113.638 59.2482C113.572 59.2509 113.505 59.2563 113.438 59.259C113.217 59.2697 112.995 59.2751 112.771 59.2751C104.514 59.2751 97.7955 52.6183 97.7955 44.4334C97.7955 36.2485 104.514 29.5918 112.771 29.5918C112.995 29.5918 113.217 29.5998 113.438 29.6079C113.505 29.6106 113.572 29.6132 113.638 29.6186C113.822 29.6293 114.007 29.6427 114.188 29.6615C114.305 29.6722 114.423 29.6856 114.54 29.7017C114.636 29.7124 114.73 29.7258 114.826 29.7366C117.672 30.1307 120.338 31.3371 122.502 33.1682C122.558 33.2164 122.616 33.2647 122.672 33.3156C122.755 33.388 122.838 33.4604 122.918 33.5328C123.056 33.6588 123.193 33.7848 123.323 33.9161C123.347 33.9403 123.374 33.9671 123.398 33.9912C123.537 34.1333 123.675 34.2754 123.812 34.4202C123.836 34.4443 123.857 34.4711 123.881 34.4952C124.19 34.8357 124.484 35.1869 124.761 35.5542C124.764 35.5595 124.769 35.5649 124.772 35.5676C125.055 35.9402 125.319 36.329 125.564 36.7284C125.666 36.8973 125.61 37.1172 125.439 37.2164L121.44 39.5354L119.129 40.8758C118.926 40.9938 118.662 40.9375 118.531 40.7391C117.219 38.7365 115.397 37.6292 113.219 37.6292C111.042 37.6292 109.215 38.581 107.953 40.0716C106.888 41.2217 106.24 42.7552 106.24 44.4361C106.24 46.1171 106.888 47.6479 107.953 48.8007C109.215 50.2939 111.106 51.243 113.219 51.243C115.333 51.243 117.219 50.1358 118.531 48.1331C118.662 47.9347 118.924 47.8784 119.129 47.9964L125.338 51.5996C125.562 51.7282 125.631 52.0178 125.492 52.2376H125.495Z" fill="black"/>
<path d="M153.201 57.7204C153.382 58.0234 153.166 58.4068 152.814 58.4068H143.665C143.5 58.4068 143.345 58.3156 143.268 58.1682L138.748 49.6857C138.527 49.2702 137.9 49.4283 137.9 49.9002V57.9564C137.9 58.2057 137.7 58.4095 137.449 58.4095H129.567C129.319 58.4095 129.117 58.2057 129.117 57.9564V21.5869C129.117 21.3375 129.319 21.1338 129.567 21.1338H137.449C137.697 21.1338 137.9 21.3375 137.9 21.5869V38.5706C137.9 39.0424 138.527 39.1979 138.748 38.785L143.268 30.3026C143.345 30.1551 143.5 30.064 143.665 30.064H152.814C153.164 30.064 153.38 30.4473 153.201 30.7503L145.285 44.0048C145.199 44.1496 145.199 44.3265 145.285 44.4713L153.201 57.7258V57.7204Z" fill="black"/>
<path d="M208.245 30.4984V57.9378C208.245 58.1871 208.042 58.3908 207.794 58.3908H199.913C199.664 58.3908 199.462 58.1871 199.462 57.9378V57.5195C199.462 57.3453 199.275 57.238 199.123 57.3238C196.863 58.608 194.31 59.2809 191.69 59.2809C183.432 59.2809 176.714 52.6242 176.714 44.4393C176.714 36.2544 183.432 29.5977 191.69 29.5977C194.31 29.5977 196.863 30.2733 199.123 31.5547C199.275 31.6405 199.462 31.5333 199.462 31.359V30.4958C199.462 30.2464 199.664 30.0427 199.913 30.0427H207.794C208.042 30.0427 208.245 30.2464 208.245 30.4958V30.4984ZM199.462 44.442C199.462 40.6887 196.831 37.6351 193.042 37.6351C189.254 37.6351 186.172 40.6887 186.172 44.442C186.172 48.1953 189.254 51.2488 193.042 51.2488C196.831 51.2488 199.462 48.1953 199.462 44.442Z" fill="black"/>
<path d="M221.888 21.5869V27.3696C221.888 27.619 221.686 27.8227 221.437 27.8227H213.556C213.308 27.8227 213.105 27.619 213.105 27.3696V21.5869C213.105 21.3375 213.308 21.1338 213.556 21.1338H221.437C221.686 21.1338 221.888 21.3375 221.888 21.5869ZM221.888 30.5144V57.9537C221.888 58.203 221.686 58.4068 221.437 58.4068H213.556C213.308 58.4068 213.105 58.203 213.105 57.9537V30.5144C213.105 30.265 213.308 30.0613 213.556 30.0613H221.437C221.686 30.0613 221.888 30.265 221.888 30.5144Z" fill="black"/>
<path d="M236 21.5869V57.9537C236 58.203 235.8 58.4068 235.549 58.4068H227.217C226.969 58.4068 226.766 58.203 226.766 57.9537V21.5869C226.766 21.3375 226.969 21.1338 227.217 21.1338H235.549C235.797 21.1338 236 21.3375 236 21.5869Z" fill="black"/>
<path d="M179.55 19.3839C180.579 20.1453 180.841 21.2177 180.694 22.1024C180.422 23.7324 178.861 25.0112 177.138 25.0112C176.729 25.0112 176.327 24.9415 175.929 24.8074L175.676 25.1238C174.256 26.8932 172.791 28.7162 171.276 30.4669C171.129 30.6385 170.983 30.8127 170.833 30.9816C170.422 31.4481 169.969 31.8905 169.526 32.3194C168.242 33.5714 167.026 34.7537 166.959 36.3783L166.964 53.48C168.226 53.5148 169.843 53.6703 171.316 54.1341C172.234 54.4237 172.887 54.7722 173.29 55.1851C173.589 55.4934 173.749 55.8392 173.768 56.2253V56.2708V56.3191C173.723 56.9706 173.338 57.4076 172.909 57.7078C172.591 57.933 172.244 58.0858 171.994 58.1958C170.476 58.8553 168.403 59.0965 166.775 59.1743C166.231 59.2011 165.734 59.2091 165.329 59.2091C163.293 59.2091 161.311 59.0134 159.886 58.6703C158.694 58.3807 157.189 57.8311 156.781 56.8499C156.602 56.421 156.642 55.9545 156.893 55.5363C157.36 54.7588 158.627 54.169 160.663 53.7722C161.247 53.6596 161.89 53.5604 162.602 53.4773C162.674 53.4693 162.757 53.4666 162.85 53.4666C162.962 53.4666 163.09 53.472 163.229 53.4773C163.339 53.4854 163.456 53.4907 163.571 53.4907L163.597 37.5928C163.555 37.3167 163.523 37.0512 163.493 36.7912C163.416 36.1344 163.352 35.5687 163.125 34.9762C162.861 34.2872 162.528 33.9896 162.026 33.5392C161.78 33.3167 161.5 33.0674 161.209 32.743C160.492 31.9521 159.819 31.1961 159.179 30.4669C158.227 29.3811 157.352 28.3597 156.535 27.3758C156.34 27.1425 156.047 26.802 155.703 26.4026C154.086 24.5259 152.72 22.9147 152.362 22.1667C152.186 21.8021 152.184 21.4724 152.208 21.1721L152.266 20.4322H172.861C173.232 18.7324 174.534 17.4134 175.969 17.4134C176.489 17.4134 177.223 17.585 177.951 18.3276C178.362 18.0086 179.029 17.341 179.446 16.8424C180.022 16.148 180.542 15.3169 181.044 14.5127C181.182 14.2928 181.318 14.0703 181.457 13.8558L181.633 13.5797L183.191 13.2178L183.229 14.2178C183.234 14.3464 183.239 14.5073 183.215 14.6896C183.063 15.77 180.908 18.0917 179.55 19.3839Z" fill="black"/>
<path d="M89.7446 41.1641C91.9884 40.7164 91.9404 43.652 91.855 45.1533C91.775 46.5313 91.4468 48.1158 89.6833 47.7029C87.178 47.1131 84.5526 45.8343 82.026 45.1935C81.9806 45.1828 81.9406 45.1641 81.9006 45.1453C81.4444 44.9281 81.2843 44.282 81.6578 43.896C81.7298 43.8182 81.8792 43.7539 81.9913 43.7056C82.0073 43.7003 82.0233 43.6922 82.0367 43.6869C84.4192 42.6654 87.3114 42.1453 89.7446 41.1668V41.1641Z" fill="black"/>
<path d="M79.7284 27.5586C88.9945 27.5586 96.5317 35.1322 96.5317 44.4431C96.5317 53.754 88.9945 61.3276 79.7284 61.3276C70.4623 61.3276 62.9251 53.754 62.9251 44.4431C62.9251 35.1322 70.4623 27.5586 79.7284 27.5586ZM93.949 44.4431C93.949 36.5504 87.5831 30.1537 79.7284 30.1537C71.8737 30.1537 65.5078 36.5504 65.5078 44.4431C65.5078 52.3358 71.8737 58.7325 79.7284 58.7325C87.5831 58.7325 93.949 52.3358 93.949 44.4431Z" fill="black"/>
<path d="M88.6025 36.0936C89.4029 36.9676 90.4621 38.2008 89.499 39.359C87.0177 40.8201 84.3604 42.0077 81.8204 43.3777L81.8044 43.3857C81.092 43.6377 80.4784 42.9461 80.8092 42.2866C80.8172 42.2678 80.8279 42.249 80.8385 42.2329C82.1886 39.997 83.1304 37.2062 84.4964 35.0185C84.7472 34.6137 85.1021 34.3135 85.585 34.2438C86.5988 34.099 87.9462 35.3751 88.6052 36.0936H88.6025Z" fill="black"/>
<path d="M89.499 49.3008C90.4648 50.4589 89.403 51.6922 88.6025 52.5688C87.9435 53.2873 86.5962 54.5634 85.5823 54.4187C85.0994 54.349 84.7446 54.0487 84.4938 53.6466C83.1277 51.4589 82.1859 48.6681 80.8359 46.4322C80.8252 46.4134 80.8145 46.3946 80.8065 46.3786C80.4757 45.7164 81.0894 45.0247 81.8017 45.2767C81.8097 45.2794 81.8151 45.2847 81.8231 45.2874C84.363 46.6574 87.0177 47.8424 89.4963 49.3035L89.499 49.3008Z" fill="black"/>
<path d="M82.565 32.8264C83.0773 33.2956 83.1119 33.8908 82.9519 34.5235C82.3169 37.0301 81.1616 39.5636 80.5053 42.0837C80.4919 42.1346 80.4733 42.1802 80.4546 42.2258C80.1744 42.8236 79.3153 42.8826 79.0298 42.2526C79.0218 42.2338 79.0112 42.2124 79.0032 42.1909L76.4312 34.1964C76.2711 32.5369 77.8132 32.3358 79.0832 32.2527C79.9343 32.1964 81.922 32.2393 82.565 32.8238V32.8264Z" fill="black"/>
<path d="M82.9519 54.1401C83.1119 54.7728 83.0773 55.3679 82.565 55.8371C81.922 56.4242 79.9343 56.4644 79.0832 56.4081C77.8132 56.325 76.2711 56.1239 76.4312 54.4644L79.0032 46.4726C79.0112 46.4511 79.0192 46.4297 79.0298 46.4083C79.3153 45.7782 80.1744 45.8399 80.4546 46.4377C80.4759 46.4806 80.4919 46.5289 80.5053 46.5798C81.1616 49.0999 82.3169 51.6334 82.9519 54.1401Z" fill="black"/>
<path d="M78.6933 42.3792C78.8987 43.0253 78.3197 43.6151 77.6874 43.3899L70.2596 39.5937C69.782 39.2854 69.4939 38.6956 69.5659 38.1245C69.694 37.0656 72.3353 34.398 73.3839 34.2452C74.0696 34.146 74.5738 34.449 74.958 34.9959L78.6933 42.3792Z" fill="black"/>
<path d="M77.6876 45.2745C78.32 45.0493 78.8989 45.6391 78.6935 46.2852L74.9582 53.6685C74.574 54.2154 74.0671 54.5156 73.3841 54.4165C72.3356 54.2663 69.6942 51.5988 69.5661 50.5398C69.4968 49.9688 69.7823 49.379 70.2598 49.0707L77.6876 45.2745Z" fill="black"/>
<path d="M77.5483 43.7164C78.0606 43.9362 78.162 44.6735 77.7351 45.0247C77.6951 45.0381 77.655 45.0542 77.615 45.0649C75.3072 45.8826 72.9486 46.7244 70.5954 47.4321C69.6856 47.7083 68.8078 48.1024 68.1008 47.1694C67.4285 46.282 67.4231 42.6199 68.0715 41.7244C68.2502 41.4778 68.6157 41.199 68.9226 41.148C69.1627 41.1078 69.5069 41.1159 69.747 41.1614L77.5456 43.7164H77.5483Z" fill="black"/>
<path d="M79.7284 61.3276C70.4623 61.3276 62.9251 53.754 62.9251 44.4431C62.9251 35.1322 70.4623 27.5586 79.7284 27.5586C88.9945 27.5586 96.5317 35.1322 96.5317 44.4431C96.5317 53.754 88.9945 61.3276 79.7284 61.3276Z" stroke="black" stroke-miterlimit="10"/>
<path d="M93.9496 44.4427C93.9496 52.3353 87.5837 58.732 79.729 58.732C71.8743 58.732 65.5083 52.3353 65.5083 44.4427C65.5083 36.55 71.8743 30.1533 79.729 30.1533C87.5837 30.1533 93.9496 36.55 93.9496 44.4427Z" stroke="black" stroke-miterlimit="10"/>
</g>
<defs>
<clipPath id="clip0_463_138">
<rect width="263" height="61" fill="white"/>
</clipPath>
</defs>
</svg>
