<svg width="150" height="35" viewBox="0 0 150 35" fill="none" xmlns="http://www.w3.org/2000/svg">
<g clip-path="url(#clip0_47_1596)">
<path d="M24.7069 28.2102C22.0979 31.682 18.0689 33.7339 13.8052 33.7339C6.19356 33.7339 0 27.3252 0 19.448C0 11.5708 6.19356 5.16211 13.8052 5.16211C16.0448 5.16211 18.1824 5.70087 20.1565 6.76089C21.8497 7.67114 23.362 8.95483 24.5626 10.4972C24.6761 10.645 24.6453 10.859 24.4953 10.9698L19.9256 14.3502C19.7851 14.4533 19.5889 14.4339 19.4754 14.3016C18.04 12.6056 16.0063 11.6447 13.8032 11.6447C9.63956 11.6447 6.25128 15.1457 6.25128 19.448C6.25128 23.7503 9.63956 27.2513 13.8032 27.2513C16.064 27.2513 18.1978 26.201 19.6274 24.4116C19.7351 24.2755 19.9333 24.2541 20.0718 24.3572L24.6338 27.7317C24.7858 27.8445 24.8185 28.0604 24.705 28.2102H24.7069Z" fill="black"/>
<path d="M70.3091 28.3092C70.1475 28.564 69.9166 28.9141 69.7896 29.0852C69.7877 29.0891 69.7839 29.0911 69.7819 29.0949C69.5818 29.3614 69.3702 29.6181 69.147 29.8632C69.1412 29.869 69.1354 29.8749 69.1297 29.8807C69.0392 29.978 68.8872 30.1355 68.7949 30.2308C68.7776 30.2483 68.7603 30.2658 68.7449 30.2833C68.6487 30.3786 68.5505 30.47 68.4505 30.5615C68.3928 30.614 68.3331 30.6665 68.2754 30.7171C68.235 30.754 68.1927 30.789 68.1503 30.824C66.5899 32.1525 64.6678 33.0258 62.6148 33.3117C62.5475 33.3214 62.4782 33.3292 62.4089 33.337C62.3243 33.3467 62.2396 33.3564 62.1549 33.3642C62.0241 33.3759 61.8913 33.3875 61.7586 33.3953C61.7105 33.3972 61.6624 33.4011 61.6143 33.4031C61.4546 33.4109 61.2949 33.4148 61.1333 33.4148C55.1783 33.4148 50.3335 28.5854 50.3335 22.6473C50.3335 16.7093 55.1783 11.8799 61.1333 11.8799C61.2949 11.8799 61.4546 11.8857 61.6143 11.8916C61.6624 11.8935 61.7105 11.8954 61.7586 11.8993C61.8913 11.9071 62.0241 11.9168 62.1549 11.9305C62.2396 11.9382 62.3243 11.948 62.4089 11.9596C62.4782 11.9674 62.5455 11.9771 62.6148 11.9849C64.6678 12.2708 66.5899 13.1461 68.1503 14.4745C68.1907 14.5095 68.2331 14.5445 68.2735 14.5815C68.3331 14.634 68.3928 14.6865 68.4505 14.739C68.5505 14.8304 68.6487 14.9218 68.7429 15.0171C68.7603 15.0346 68.7795 15.0541 68.7968 15.0716C68.8969 15.1747 68.9969 15.2778 69.095 15.3828C69.1124 15.4003 69.1277 15.4198 69.1451 15.4373C69.3683 15.6843 69.5799 15.9391 69.78 16.2055C69.7819 16.2094 69.7858 16.2133 69.7877 16.2153C69.9917 16.4856 70.1821 16.7676 70.3591 17.0574C70.4323 17.18 70.3919 17.3395 70.2687 17.4114L67.3845 19.0938L65.7183 20.0663C65.5721 20.1519 65.3816 20.1111 65.2873 19.9671C64.3407 18.5142 63.0265 17.7109 61.4565 17.7109C59.8865 17.7109 58.5685 18.4014 57.6584 19.4828C56.8907 20.3172 56.4232 21.4298 56.4232 22.6493C56.4232 23.8688 56.8907 24.9794 57.6584 25.8157C58.5685 26.8991 59.9326 27.5876 61.4565 27.5876C62.9804 27.5876 64.3407 26.7843 65.2873 25.3314C65.3816 25.1875 65.5702 25.1466 65.7183 25.2322L70.1956 27.8463C70.3572 27.9396 70.4073 28.1497 70.3072 28.3092H70.3091Z" fill="black"/>
<path d="M90.2886 32.2869C90.4195 32.5066 90.2636 32.7848 90.0096 32.7848H83.412C83.2927 32.7848 83.1811 32.7186 83.1253 32.6117L79.866 26.4577C79.7063 26.1563 79.2541 26.271 79.2541 26.6133V32.458C79.2541 32.6389 79.1098 32.7867 78.929 32.7867H73.2453C73.0663 32.7867 72.9201 32.6389 72.9201 32.458V6.07235C72.9201 5.89147 73.0663 5.74365 73.2453 5.74365H78.929C79.1079 5.74365 79.2541 5.89147 79.2541 6.07235V18.3938C79.2541 18.7362 79.7063 18.849 79.866 18.5494L83.1253 12.3955C83.1811 12.2885 83.2927 12.2224 83.412 12.2224H90.0096C90.2617 12.2224 90.4175 12.5005 90.2886 12.7203L84.5799 22.3363C84.5184 22.4413 84.5184 22.5697 84.5799 22.6747L90.2886 32.2908V32.2869Z" fill="black"/>
<path d="M129.984 12.5373V32.4442C129.984 32.6251 129.838 32.7729 129.659 32.7729H123.975C123.796 32.7729 123.65 32.6251 123.65 32.4442V32.1408C123.65 32.0144 123.515 31.9366 123.406 31.9988C121.776 32.9305 119.935 33.4187 118.045 33.4187C112.09 33.4187 107.245 28.5893 107.245 22.6512C107.245 16.7132 112.09 11.8838 118.045 11.8838C119.935 11.8838 121.776 12.3739 123.406 13.3036C123.515 13.3659 123.65 13.2881 123.65 13.1616V12.5354C123.65 12.3545 123.796 12.2067 123.975 12.2067H129.659C129.838 12.2067 129.984 12.3545 129.984 12.5354V12.5373ZM123.65 22.6532C123.65 19.9302 121.753 17.7149 119.021 17.7149C116.288 17.7149 114.066 19.9302 114.066 22.6532C114.066 25.3761 116.288 27.5915 119.021 27.5915C121.753 27.5915 123.65 25.3761 123.65 22.6532Z" fill="black"/>
<path d="M139.824 6.07235V10.2677C139.824 10.4486 139.677 10.5964 139.498 10.5964H133.815C133.636 10.5964 133.49 10.4486 133.49 10.2677V6.07235C133.49 5.89147 133.636 5.74365 133.815 5.74365H139.498C139.677 5.74365 139.824 5.89147 139.824 6.07235ZM139.824 12.5492V32.4561C139.824 32.637 139.677 32.7848 139.498 32.7848H133.815C133.636 32.7848 133.49 32.637 133.49 32.4561V12.5492C133.49 12.3683 133.636 12.2205 133.815 12.2205H139.498C139.677 12.2205 139.824 12.3683 139.824 12.5492Z" fill="black"/>
<path d="M150 6.07235V32.4561C150 32.637 149.856 32.7848 149.675 32.7848H143.666C143.487 32.7848 143.341 32.637 143.341 32.4561V6.07235C143.341 5.89147 143.487 5.74365 143.666 5.74365H149.675C149.854 5.74365 150 5.89147 150 6.07235Z" fill="black"/>
<path d="M109.291 4.47346C110.033 5.02584 110.222 5.80383 110.116 6.44568C109.92 7.62823 108.794 8.55599 107.551 8.55599C107.257 8.55599 106.966 8.50542 106.68 8.40817L106.497 8.63768C105.473 9.92137 104.417 11.244 103.324 12.514C103.218 12.6385 103.113 12.7649 103.005 12.8875C102.708 13.2259 102.381 13.5468 102.062 13.858C101.136 14.7663 100.259 15.6241 100.211 16.8027L100.215 29.2098C101.125 29.2351 102.291 29.3479 103.353 29.6844C104.015 29.8944 104.486 30.1473 104.777 30.4468C104.992 30.6705 105.108 30.9214 105.121 31.2014V31.2345V31.2695C105.089 31.7422 104.811 32.0592 104.502 32.277C104.273 32.4404 104.023 32.5513 103.842 32.631C102.747 33.1095 101.252 33.2845 100.078 33.3409C99.6858 33.3604 99.3279 33.3662 99.0354 33.3662C97.5673 33.3662 96.1378 33.2242 95.1103 32.9753C94.2503 32.7652 93.1651 32.3665 92.8707 31.6546C92.7418 31.3434 92.7707 31.005 92.9515 30.7016C93.2882 30.1375 94.2022 29.7096 95.6702 29.4218C96.0916 29.3401 96.5553 29.2681 97.069 29.2078C97.121 29.202 97.1806 29.2001 97.248 29.2001C97.3288 29.2001 97.4211 29.2039 97.5212 29.2078C97.6001 29.2137 97.6847 29.2176 97.7675 29.2176L97.7867 17.6838C97.7559 17.4835 97.7328 17.2909 97.7117 17.1023C97.6559 16.6257 97.6097 16.2153 97.4461 15.7855C97.2557 15.2856 97.0151 15.0697 96.6534 14.743C96.4764 14.5816 96.2744 14.4007 96.0647 14.1653C95.5471 13.5916 95.0622 13.0431 94.6005 12.514C93.9136 11.7263 93.2825 10.9853 92.6937 10.2715C92.5532 10.1023 92.3416 9.85524 92.0934 9.56544C90.9274 8.20395 89.9423 7.03501 89.6845 6.49236C89.5575 6.22784 89.5556 5.98861 89.5729 5.77077L89.6152 5.23395H104.467C104.734 4.00083 105.673 3.0439 106.709 3.0439C107.084 3.0439 107.613 3.16838 108.138 3.70714C108.434 3.47569 108.915 2.99139 109.216 2.62962C109.631 2.12587 110.006 1.52292 110.368 0.939428C110.468 0.779939 110.566 0.618505 110.666 0.462906L110.793 0.262573L111.917 0L111.944 0.725479C111.948 0.818839 111.952 0.935538 111.934 1.0678C111.825 1.85163 110.27 3.53598 109.291 4.47346Z" fill="black"/>
<path d="M44.5267 20.2745C46.1448 19.9497 46.1102 22.0795 46.0486 23.1687C45.9909 24.1684 45.7542 25.3179 44.4824 25.0184C42.6757 24.5905 40.7824 23.6627 38.9603 23.1979C38.9276 23.1901 38.8988 23.1765 38.8699 23.1628C38.5409 23.0053 38.4255 22.5366 38.6948 22.2565C38.7468 22.2001 38.8545 22.1534 38.9353 22.1184C38.9469 22.1145 38.9584 22.1087 38.968 22.1048C40.6862 21.3637 42.7719 20.9864 44.5267 20.2765V20.2745Z" fill="black"/>
<path d="M37.3037 10.4038C43.986 10.4038 49.4215 15.8984 49.4215 22.6533C49.4215 29.4083 43.986 34.9028 37.3037 34.9028C30.6215 34.9028 25.186 29.4083 25.186 22.6533C25.186 15.8984 30.6215 10.4038 37.3037 10.4038ZM47.559 22.6533C47.559 16.9273 42.9682 12.2866 37.3037 12.2866C31.6393 12.2866 27.0485 16.9273 27.0485 22.6533C27.0485 28.3794 31.6393 33.0201 37.3037 33.0201C42.9682 33.0201 47.559 28.3794 47.559 22.6533Z" fill="black"/>
<path d="M43.7031 16.5968C44.2804 17.2309 45.0442 18.1256 44.3496 18.9658C42.5603 20.0259 40.6439 20.8875 38.8122 21.8814L38.8006 21.8872C38.2869 22.07 37.8444 21.5682 38.083 21.0898C38.0887 21.0761 38.0964 21.0625 38.1041 21.0509C39.0777 19.4287 39.7569 17.404 40.742 15.8169C40.9229 15.5232 41.1788 15.3054 41.527 15.2548C42.2582 15.1498 43.2298 16.0756 43.7051 16.5968H43.7031Z" fill="black"/>
<path d="M44.3497 26.1776C45.0462 27.0179 44.2804 27.9126 43.7032 28.5486C43.2279 29.0698 42.2563 29.9957 41.5251 29.8906C41.1769 29.8401 40.921 29.6222 40.7401 29.3305C39.755 27.7434 39.0758 25.7186 38.1022 24.0965C38.0945 24.0829 38.0868 24.0693 38.0811 24.0576C37.8425 23.5772 38.285 23.0754 38.7987 23.2582C38.8045 23.2602 38.8084 23.2641 38.8141 23.266C40.6458 24.2599 42.5603 25.1196 44.3477 26.1796L44.3497 26.1776Z" fill="black"/>
<path d="M39.349 14.2259C39.7184 14.5663 39.7435 14.9981 39.628 15.4571C39.1701 17.2757 38.337 19.1137 37.8636 20.942C37.854 20.9789 37.8406 21.012 37.8271 21.045C37.6251 21.4788 37.0055 21.5216 36.7996 21.0645C36.7939 21.0509 36.7862 21.0353 36.7804 21.0198L34.9256 15.2198C34.8102 14.0159 35.9223 13.87 36.8381 13.8097C37.4519 13.7688 38.8853 13.8 39.349 14.224V14.2259Z" fill="black"/>
<path d="M39.628 29.6885C39.7435 30.1475 39.7184 30.5793 39.349 30.9197C38.8853 31.3456 37.4519 31.3748 36.8381 31.334C35.9223 31.2737 34.8102 31.1278 34.9256 29.9239L36.7804 24.1259C36.7862 24.1103 36.7919 24.0947 36.7996 24.0792C37.0055 23.6221 37.6251 23.6668 37.8271 24.1006C37.8425 24.1317 37.854 24.1667 37.8636 24.2037C38.337 26.0319 39.1701 27.87 39.628 29.6885Z" fill="black"/>
<path d="M36.5572 21.1558C36.7053 21.6246 36.2878 22.0525 35.8318 21.8891L30.4752 19.135C30.1308 18.9113 29.923 18.4834 29.975 18.0691C30.0673 17.3009 31.9721 15.3656 32.7283 15.2547C33.2228 15.1828 33.5864 15.4026 33.8635 15.7993L36.5572 21.1558Z" fill="black"/>
<path d="M35.8318 23.2562C36.2878 23.0928 36.7054 23.5207 36.5572 23.9894L33.8635 29.3459C33.5864 29.7427 33.2209 29.9605 32.7283 29.8886C31.9722 29.7797 30.0673 27.8444 29.975 27.0761C29.925 26.6618 30.1308 26.2339 30.4752 26.0103L35.8318 23.2562Z" fill="black"/>
<path d="M35.7318 22.1263C36.1012 22.2858 36.1743 22.8206 35.8664 23.0754C35.8376 23.0852 35.8087 23.0968 35.7799 23.1046C34.1155 23.6978 32.4147 24.3085 30.7176 24.822C30.0615 25.0224 29.4285 25.3083 28.9186 24.6314C28.4338 23.9876 28.4299 21.3308 28.8975 20.6812C29.0264 20.5022 29.29 20.2999 29.5113 20.263C29.6844 20.2338 29.9326 20.2396 30.1058 20.2727L35.7298 22.1263H35.7318Z" fill="black"/>
<path d="M37.3037 34.9028C30.6215 34.9028 25.186 29.4083 25.186 22.6533C25.186 15.8984 30.6215 10.4038 37.3037 10.4038C43.986 10.4038 49.4215 15.8984 49.4215 22.6533C49.4215 29.4083 43.986 34.9028 37.3037 34.9028Z" stroke="black" stroke-miterlimit="10"/>
<path d="M47.559 22.6534C47.559 28.3794 42.9682 33.0202 37.3037 33.0202C31.6393 33.0202 27.0485 28.3794 27.0485 22.6534C27.0485 16.9274 31.6393 12.2866 37.3037 12.2866C42.9682 12.2866 47.559 16.9274 47.559 22.6534Z" stroke="black" stroke-miterlimit="10"/>
</g>
<defs>
<clipPath id="clip0_47_1596">
<rect width="150" height="35" fill="white"/>
</clipPath>
</defs>
</svg>
